<?xml version="1.0" encoding="iso-8859-1"?>
<!-- Generator: Adobe Illustrator 19.0.0, SVG Export Plug-In . SVG Version: 6.00 Build 0)  -->
<svg version="1.1" id="Capa_1" xmlns="http://www.w3.org/2000/svg" xmlns:xlink="http://www.w3.org/1999/xlink" x="0px" y="0px"
	 viewBox="0 0 512 512" style="enable-background:new 0 0 512 512;" xml:space="preserve">
<rect x="253.008" y="55.273" style="fill:#FFC843;" width="133.96" height="398.31"/>
<polygon style="fill:#76FFD9;" points="274.707,503.166 98.16,467.857 98.16,55.912 274.707,8.833 "/>
<polygon style="fill:#FFFFFF;" points="274.707,477.522 392.405,477.522 413.841,477.522 413.841,456.087 413.841,55.912 
	413.841,34.478 392.405,34.478 274.707,34.478 274.707,77.348 370.971,77.348 370.971,434.652 274.707,434.652 "/>
<path style="fill:#00C395;" d="M233.582,283.118c4.88,0,8.833-3.955,8.833-8.833s-3.954-8.833-8.833-8.833h-30.2
	c-4.88,0-8.833,3.955-8.833,8.833s3.954,8.833,8.833,8.833H233.582z"/>
<path style="fill:#434C54;" d="M283.539,68.515V43.311h121.468v425.377h-12.602c-4.879,0-8.833,3.955-8.833,8.833
	s3.954,8.833,8.833,8.833h21.435c4.88,0,8.833-3.955,8.833-8.833V34.478c0-4.878-3.954-8.833-8.833-8.833H283.539V8.833
	c0-2.744-1.276-5.333-3.452-7.004c-2.178-1.672-5.007-2.239-7.658-1.53L95.883,47.378c-3.867,1.031-6.557,4.533-6.557,8.535v28.531
	c0,4.878,3.954,8.833,8.833,8.833s8.833-3.955,8.833-8.833V62.7l158.88-42.369v472.061l-158.88-31.776v-346.4
	c0-4.878-3.954-8.833-8.833-8.833c-4.879,0-8.833,3.955-8.833,8.833v353.642c0,4.211,2.972,7.836,7.101,8.661l176.546,35.31
	c0.575,0.115,1.154,0.172,1.732,0.172c2.025,0,4.007-0.696,5.6-2.002c2.046-1.678,3.233-4.185,3.233-6.831v-16.81h81.405
	c4.88,0,8.833-3.955,8.833-8.833c0-4.878-3.954-8.833-8.833-8.833h-81.405v-25.203V68.515z"/>
<g>
</g>
<g>
</g>
<g>
</g>
<g>
</g>
<g>
</g>
<g>
</g>
<g>
</g>
<g>
</g>
<g>
</g>
<g>
</g>
<g>
</g>
<g>
</g>
<g>
</g>
<g>
</g>
<g>
</g>
</svg>
