<svg width="470" height="427" viewBox="0 0 470 427" fill="none" xmlns="http://www.w3.org/2000/svg">
<path d="M234.334 363.264L411.892 425.094C413.797 423.916 415 422.225 415 420.337V6.66265C415 4.77623 413.797 3.08376 411.892 1.90625L234.334 63.736L56.7764 2.11137C55.0615 3.27601 54 4.88522 54 6.66265V420.337C54 422.115 55.0602 423.724 56.7764 424.889L234.334 363.264Z" fill="#434C54"/>
<path d="M283.913 89.5938L415 5.4275C413.289 4.42782 411.021 3.8125 408.524 3.8125H60.8125C58.152 3.8125 55.7433 4.50452 54 5.62463L184.781 89.5938H283.913Z" fill="#434C54"/>
<path d="M408.524 425.094C411.021 425.094 413.289 424.485 415 423.497L283.913 340.266H184.782L54 423.302C55.7433 424.409 58.152 425.094 60.8125 425.094H408.524Z" fill="#434C54"/>
<path d="M345.556 401.266L204 213.5L345.556 25.7344H386V401.266H345.556Z" fill="#FBC52B"/>
<path d="M82 25.7344H346V401.266H82V25.7344Z" fill="#FBDD4F"/>
<path d="M106 40.0312H321V131.531L106 251.625V40.0312Z" fill="white" fill-opacity="0.34"/>
<path d="M321 371.719H106V280.219L321 160.125V371.719Z" fill="white" fill-opacity="0.34"/>
</svg>
