<svg width="61" height="60" viewBox="0 0 61 60" fill="none" xmlns="http://www.w3.org/2000/svg">
<g clip-path="url(#clip0)">
<path fill-rule="evenodd" clip-rule="evenodd" d="M30.5645 60C47.133 60 60.5645 46.5685 60.5645 30C60.5645 13.4315 47.133 0 30.5645 0C13.9959 0 0.564453 13.4315 0.564453 30C0.564453 46.5685 13.9959 60 30.5645 60Z" fill="#FBC52B"/>
<g clip-path="url(#clip1)">
<path d="M43.9676 23.5826L43.9676 23.5825C43.8378 23.323 43.943 23.0074 44.2025 22.8776L48.3041 20.8269C48.3041 20.8269 48.3041 20.8269 48.3041 20.8269C48.5637 20.6971 48.8791 20.8023 49.0089 21.0618C49.1387 21.3214 49.0335 21.6369 48.774 21.7667L44.6724 23.8175C44.6724 23.8175 44.6724 23.8175 44.6724 23.8175C44.4128 23.9473 44.0973 23.842 43.9676 23.5826Z" fill="black" stroke="black"/>
<path d="M49.0089 33.8365L49.0089 33.8365C49.1387 33.5769 49.0335 33.2613 48.774 33.1315L44.6724 31.0808C44.4131 30.9511 44.0974 31.0562 43.9676 31.3157L49.0089 33.8365ZM49.0089 33.8365C48.8792 34.0959 48.5636 34.2012 48.3041 34.0714L44.2025 32.0206C43.943 31.8909 43.8378 31.5753 43.9675 31.3158L49.0089 33.8365Z" fill="black" stroke="black"/>
<path d="M22.2675 28.4755V28.9755H22.7675H38.2167C39.6367 28.9755 40.7928 30.1317 40.7928 31.5517V43.9247C40.7928 45.3448 39.6367 46.5009 38.2167 46.5009H17.6406C16.2206 46.5009 15.0645 45.3448 15.0645 43.9247V31.5517C15.0645 30.4339 15.7815 29.4781 16.7823 29.1232L17.1152 29.0052V28.652V23.2803C17.1152 17.3399 21.979 12.5011 27.9629 12.501C33.9062 12.501 38.7421 17.337 38.7421 23.2802V25.331C38.7421 25.6212 38.5069 25.8564 38.2167 25.8564H34.1152C33.825 25.8564 33.5898 25.6212 33.5898 25.331V23.2802C33.5898 20.1771 31.066 17.6533 27.9628 17.6533C24.8283 17.6533 22.2675 20.1709 22.2675 23.2802V28.4755ZM37.1913 24.8057H37.6913V24.3057V23.2803C37.6913 17.9156 33.3276 13.5519 27.9628 13.5519C22.564 13.5519 18.166 17.9121 18.166 23.2803V28.4756V28.9756H18.666H20.7168H21.2168V28.4756V23.2803C21.2168 19.6054 24.2639 16.6026 27.9628 16.6026C31.6444 16.6026 34.6405 19.5986 34.6405 23.2803V24.3057V24.8057H35.1405H37.1913ZM38.2167 45.4501C39.0582 45.4501 39.7421 44.7662 39.7421 43.9247V31.5517C39.7421 30.7102 39.0582 30.0263 38.2167 30.0263H38.2116H38.2061H38.2003H38.194H38.1873H38.1802H38.1727H38.1648H38.1565H38.1478H38.1388H38.1293H38.1194H38.1092H38.0985H38.0875H38.0761H38.0643H38.0521H38.0395H38.0266H38.0132H37.9995H37.9855H37.971H37.9562H37.941H37.9255H37.9095H37.8933H37.8766H37.8596H37.8422H37.8245H37.8064H37.788H37.7692H37.75H37.7306H37.7107H37.6905H37.67H37.6491H37.6279H37.6063H37.5844H37.5622H37.5396H37.5167H37.4934H37.4699H37.446H37.4217H37.3972H37.3723H37.3471H37.3215H37.2957H37.2695H37.243H37.2162H37.1891H37.1617H37.134H37.1059H37.0776H37.0489H37.02H36.9907H36.9611H36.9313H36.9011H36.8707H36.8399H36.8089H36.7775H36.7459H36.714H36.6818H36.6493H36.6166H36.5835H36.5502H36.5166H36.4827H36.4486H36.4141H36.3794H36.3444H36.3092H36.2737H36.2379H36.2019H36.1656H36.129H36.0922H36.0551H36.0178H35.9802H35.9424H35.9043H35.8659H35.8273H35.7885H35.7494H35.7101H35.6705H35.6307H35.5907H35.5504H35.5099H35.4692H35.4282H35.387H35.3455H35.3039H35.262H35.2199H35.1775H35.135H35.0922H35.0492H35.006H34.9625H34.9189H34.8751H34.831H34.7867H34.7423H34.6976H34.6527H34.6076H34.5623H34.5169H34.4712H34.4253H34.3792H34.333H34.2865H34.2399H34.1931H34.1461H34.0989H34.0515H34.0039H33.9562H33.9083H33.8602H33.8119H33.7635H33.7149H33.6661H33.6172H33.5681H33.5188H33.4694H33.4198H33.37H33.3201H33.27H33.2198H33.1694H33.1189H33.0682H33.0173H32.9664H32.9152H32.864H32.8125H32.761H32.7093H32.6575H32.6055H32.5534H32.5012H32.4488H32.3963H32.3437H32.2909H32.2381H32.1851H32.132H32.0787H32.0254H31.9719H31.9183H31.8646H31.8108H31.7569H31.7028H31.6487H31.5945H31.5401H31.4857H31.4311H31.3765H31.3217H31.2669H31.2119H31.1569H31.1018H31.0466H30.9913H30.9359H30.8804H30.8249H30.7692H30.7135H30.6577H30.6018H30.5459H30.4899H30.4338H30.3776H30.3214H30.2651H30.2088H30.1523H30.0958H30.0393H29.9827H29.926H29.8693H29.8125H29.7557H29.6988H29.6419H29.5849H29.5279H29.4708H29.4137H29.3566H29.2994H29.2421H29.1849H29.1276H29.0702H29.0129H28.9555H28.8981H28.8406H28.7831H28.7256H28.6681H28.6106H28.553H28.4954H28.4378H28.3802H28.3226H28.2649H28.2073H28.1496H28.092H28.0343H27.9767H27.919H27.8613H27.8037H27.746H27.6883H27.6307H27.573H27.5154H27.4578H27.4002H27.3426H27.285H27.2274H27.1699H27.1124H27.0549H26.9974H26.94H26.8825H26.8251H26.7678H26.7105H26.6532H26.5959H26.5387H26.4815H26.4243H26.3672H26.3102H26.2532H26.1962H26.1393H26.0824H26.0256H25.9688H25.9121H25.8555H25.7989H25.7423H25.6859H25.6294H25.5731H25.5168H25.4606H25.4044H25.3484H25.2924H25.2364H25.1806H25.1248H25.0691H25.0135H24.9579H24.9025H24.8471H24.7918H24.7366H24.6815H24.6265H24.5716H24.5168H24.462H24.4074H24.3529H24.2984H24.2441H24.1899H24.1357H24.0817H24.0278H23.974H23.9204H23.8668H23.8133H23.76H23.7068H23.6537H23.6007H23.5479H23.4951H23.4425H23.3901H23.3377H23.2855H23.2334H23.1815H23.1297H23.078H23.0265H22.9751H22.9238H22.8727H22.8218H22.771H22.7203H22.6698H22.6194H22.5692H22.5192H22.4693H22.4196H22.37H22.3206H22.2713H22.2223H22.1733H22.1246H22.076H22.0276H21.9794H21.9313H21.8834H21.8357H21.7882H21.7409H21.6937H21.6467H21.5999H21.5533H21.5069H21.4607H21.4146H21.3688H21.3232H21.2777H21.2325H21.1874H21.1426H21.0979H21.0535H21.0093H20.9652H20.9214H20.8778H20.8344H20.7913H20.7483H20.7056H20.663H20.6207H20.5787H20.5368H20.4952H20.4538H20.4126H20.3717H20.331H20.2905H20.2502H20.2102H20.1705H20.1309H20.0917H20.0526H20.0138H19.9753H19.937H19.8989H19.8611H19.8236H19.7863H19.7493H19.7125H19.676H19.6397H19.6037H19.568H19.5325H19.4973H19.4624H19.4278H19.3934H19.3593H19.3254H19.2919H19.2586H19.2256H19.1929H19.1604H19.1283H19.0964H19.0649H19.0336H19.0026H18.9719H18.9415H18.9114H18.8816H18.852H18.8228H18.7939H18.7653H18.737H18.709H18.6813H18.654H18.6269H18.6002H18.5737H18.5476H18.5218H18.4964H18.4712H18.4464H18.4219H18.3977H18.3739H18.3503H18.3271H18.3043H18.2818H18.2596H18.2377H18.2162H18.1951H18.1742H18.1538H18.1336H18.1138H18.0944H18.0753H18.0566H18.0382H18.0202H18.0025H17.9852H17.9683H17.9517H17.9354H17.9196H17.9041H17.889H17.8742H17.8598H17.8458H17.8322H17.8189H17.8061H17.7936H17.7814H17.7697H17.7583H17.7474H17.7368H17.7266H17.7168H17.7074H17.6984H17.6898H17.6815H17.6737H17.6663H17.6593H17.6526H17.6464H17.6406C16.7991 30.0263 16.1152 30.7102 16.1152 31.5517V43.9247C16.1152 44.7662 16.7991 45.4501 17.6406 45.4501H38.2167Z" fill="black" stroke="black"/>
<path d="M27.4372 38.5521V38.199L27.1044 38.0809C26.1035 37.7259 25.3864 36.7701 25.3864 35.6523C25.3864 34.2323 26.5426 33.0762 27.9626 33.0762C29.3827 33.0762 30.5388 34.2323 30.5388 35.6523C30.5388 36.7701 29.8218 37.7259 28.8209 38.0809L28.488 38.199V38.5521V41.873C28.488 42.1632 28.2528 42.3984 27.9626 42.3984C27.6725 42.3984 27.4372 42.1632 27.4372 41.873V38.5521ZM26.4372 35.6523C26.4372 36.4938 27.1211 37.1777 27.9626 37.1777C28.8042 37.1777 29.488 36.4938 29.488 35.6523C29.488 34.8107 28.8042 34.1269 27.9626 34.1269C27.1211 34.1269 26.4372 34.8107 26.4372 35.6523Z" fill="black" stroke="black"/>
<path d="M44.4374 26.9238H48.539C48.8291 26.9238 49.0644 27.1591 49.0644 27.4492C49.0644 27.7394 48.8291 27.9746 48.539 27.9746H44.4374C44.1473 27.9746 43.912 27.7394 43.912 27.4492C43.912 27.1591 44.1473 26.9238 44.4374 26.9238Z" fill="black" stroke="black"/>
</g>
</g>
<defs>
<clipPath id="clip0">
<rect width="60" height="60" fill="white" transform="translate(0.564453)"/>
</clipPath>
<clipPath id="clip1">
<rect width="35" height="35" fill="white" transform="translate(14.5645 12)"/>
</clipPath>
</defs>
</svg>
