<svg width="63" height="60" viewBox="0 0 63 60" fill="none" xmlns="http://www.w3.org/2000/svg">
<path fill-rule="evenodd" clip-rule="evenodd" d="M30 60C46.5685 60 60 46.5685 60 30C60 13.4315 46.5685 0 30 0C13.4315 0 0 13.4315 0 30C0 46.5685 13.4315 60 30 60Z" fill="#FBC52B"/>
<path d="M42.7323 13.9961C42.7323 13.446 42.2852 13 41.735 13C36.4645 13 31.9319 16.2194 30 20.795C28.068 16.2194 23.5352 13 18.2638 13C17.7137 13 17.2677 13.446 17.2677 13.9961C17.2677 20.6815 22.4471 26.1798 29.0039 26.6896V33.2008C29.0039 33.7509 29.4499 34.1969 30 34.1969C30.5501 34.1969 30.9961 33.7509 30.9961 33.2008V26.6896C37.5529 26.1798 42.7323 20.6815 42.7323 13.9961ZM19.3105 15.0427C24.399 15.5367 28.4594 19.597 28.9534 24.6856C23.8652 24.1912 19.8049 20.1309 19.3105 15.0427ZM31.0466 24.6856C31.5406 19.5974 35.6006 15.5372 40.6895 15.0428C40.195 20.131 36.1348 24.1912 31.0466 24.6856Z" fill="black"/>
<path d="M23.7693 33.0297C22.5215 31.782 20.5324 31.7628 19.2599 32.9338V28.9318C19.2599 26.0311 16.8997 23.6691 13.9972 23.6691H13.9961C13.446 23.6691 13 24.1151 13 24.6652V37.4683C13 37.7325 13.105 37.9858 13.2918 38.1726L19.4016 44.2825V46.0038C19.4016 46.5539 19.8475 46.9999 20.3977 46.9999H27.8662C28.4163 46.9999 28.8623 46.5539 28.8623 46.0038V40.3032C28.8623 38.8971 28.3147 37.5752 27.3206 36.5811L23.7693 33.0297ZM26.8701 45.0077H21.3938V43.87C21.3938 43.6058 21.2888 43.3525 21.102 43.1657L14.9922 37.0558V25.8182C16.8743 26.4223 17.2677 28.1662 17.2677 28.9319V35.3346C17.2677 35.5988 17.3727 35.8521 17.5595 36.0389L21.8272 40.3066C22.2163 40.6956 22.847 40.6956 23.2359 40.3066C23.6249 39.9177 23.6249 39.2869 23.2359 38.8979L20.5686 36.2306C20.0735 35.7354 20.0731 34.9341 20.5686 34.4385C21.064 33.9431 21.865 33.9429 22.3607 34.4385L25.912 37.9898C26.5299 38.6077 26.8701 39.4293 26.8701 40.3032V45.0077H26.8701Z" fill="black"/>
<path d="M46.0037 23.6693H46.0026C43.1002 23.6693 40.7399 26.0313 40.7399 28.9319V32.9339C39.4675 31.7629 37.4783 31.7822 36.2306 33.0299L32.6792 36.5812C31.6851 37.5753 31.1376 38.8972 31.1376 40.3034V46.0039C31.1376 46.554 31.5836 47 32.1337 47H39.6021C40.1523 47 40.5982 46.554 40.5982 46.0039V44.2826L46.708 38.1728C46.8948 37.986 46.9998 37.7326 46.9998 37.4685V24.6653C46.9998 24.1152 46.5538 23.6693 46.0037 23.6693ZM45.0076 37.0558L38.8978 43.1657C38.711 43.3525 38.606 43.6058 38.606 43.87V45.0078H33.1297V40.3033C33.1297 39.4293 33.47 38.6077 34.0879 37.9899L37.6392 34.4385C38.1348 33.943 38.9359 33.9432 39.4313 34.4385C39.9268 34.9341 39.9264 35.7355 39.4313 36.2307L36.7639 38.898C36.375 39.287 36.375 39.9177 36.7639 40.3067C37.1529 40.6957 37.7836 40.6956 38.1726 40.3067L42.4403 36.0389C42.6271 35.8521 42.7321 35.5988 42.7321 35.3346V28.9319C42.7321 28.1663 43.1256 26.4223 45.0077 25.8182V37.0558H45.0076Z" fill="black"/>
</svg>
