<svg width="427" height="427" viewBox="0 0 427 427" fill="none" xmlns="http://www.w3.org/2000/svg">
<path d="M419.813 365.504H8.26147V412.901H419.813V365.504Z" fill="#434C54"/>
<path d="M390.07 14.0927H37.9996V365.504H390.07V14.0927Z" fill="#434C54"/>
<path d="M195.82 27.4392H53.0038V353.103H195.82V27.4392Z" fill="white"/>
<path d="M376 27.4392H233.183V353.103H376V27.4392Z" fill="white"/>
<path d="M375.999 27.4308V222.973C374.055 223.986 372.159 225.045 370.309 226.15C251.522 221.821 233.182 81.9597 233.182 81.9597V27.4308H375.999Z" fill="#FBDD4F"/>
<path d="M375.997 226.255V353.106H294.017C294.017 353.106 305.642 264.481 370.307 226.15C372.181 226.22 374.077 226.255 375.997 226.255Z" fill="#FBDD4F"/>
<path d="M195.817 27.4308V81.9606C195.817 81.9606 177.478 221.822 58.6911 226.151C56.8408 225.046 54.9444 223.987 53.0009 222.974V27.4308H195.817Z" fill="#FBDD4F"/>
<path d="M195.817 27.4269H53V74.5557H195.817V27.4269Z" fill="#FFC80A"/>
<path d="M376 27.4269H233.183V74.5557H376V27.4269Z" fill="#FFC80A"/>
<path d="M53 226.106V353H135C135 353 123.372 264.345 58.6916 226C56.8192 226.071 54.9214 226.106 53 226.106Z" fill="#FBDD4F"/>
<path d="M419.274 357.781H397.263V14.0926C397.263 9.82594 393.803 6.36658 389.537 6.36658H338.035C333.768 6.36658 330.309 9.82594 330.309 14.0926C330.309 18.3593 333.768 21.8186 338.035 21.8186H381.811V357.781H45.1894V21.8186H312.282C316.549 21.8186 320.008 18.3593 320.008 14.0926C320.008 9.82594 316.549 6.36658 312.282 6.36658H37.4634C33.1967 6.36658 29.7374 9.82594 29.7374 14.0926V357.781H7.72603C3.45937 357.781 0 361.24 0 365.507V412.906C0 417.173 3.45937 420.632 7.72603 420.632H46.0059C50.2726 420.632 53.7319 417.173 53.7319 412.906C53.7319 408.64 50.2726 405.18 46.0059 405.18H15.4521V373.233H411.548V405.18H71.7594C67.4927 405.18 64.0333 408.64 64.0333 412.906C64.0333 417.173 67.4927 420.632 71.7594 420.632H419.274C423.541 420.632 427 417.173 427 412.906V365.507C427 361.24 423.541 357.781 419.274 357.781Z" fill="#434C54"/>
</svg>
