<svg width="60" height="60" viewBox="0 0 60 60" fill="none" xmlns="http://www.w3.org/2000/svg">
<path fill-rule="evenodd" clip-rule="evenodd" d="M30 60C46.5685 60 60 46.5685 60 30C60 13.4315 46.5685 0 30 0C13.4315 0 0 13.4315 0 30C0 46.5685 13.4315 60 30 60Z" fill="#FBC52B"/>
<path d="M45.0333 23.2925L45.4401 16.9479L39.2789 15.3775L35.8832 10L29.975 12.3557L24.0665 10L20.6708 15.3775L14.5096 16.9479L14.9164 23.2925L10.8594 28.1854L15.2136 33.4372L17.0178 31.9412L13.9041 28.1854L17.3148 24.0717L16.973 18.7387L22.1542 17.4182L25.0079 12.8986L29.975 14.8788L34.9417 12.8986L37.7957 17.4182L42.9767 18.7387L42.6349 24.0717L46.0455 28.1854L42.9321 31.9412L44.736 33.4372L49.0903 28.1854L45.0333 23.2925Z" fill="black"/>
<path d="M39.2363 28.6798H39.1575V23.6288C39.1575 21.716 37.6011 20.1596 35.688 20.1596C35.0825 20.1596 34.5128 20.3159 34.0168 20.5896C33.3998 19.6252 32.3201 18.9844 31.093 18.9844C29.8655 18.9844 28.7858 19.6252 28.1688 20.5896C27.6729 20.3159 27.1031 20.1596 26.4976 20.1596C25.1539 20.1596 23.9869 20.9277 23.4108 22.0474C22.9545 21.8262 22.4424 21.702 21.902 21.702C19.9891 21.702 18.4324 23.2584 18.4324 25.1715V40.9787C18.4324 43.1467 19.561 45.0546 21.2605 46.1502V50H23.6042V47.0502C23.9229 47.1011 24.2497 47.1286 24.5826 47.1286H26.4973V44.7849H24.5826C22.4836 44.7849 20.7762 43.0777 20.7762 40.9787V34.6542C21.1296 34.776 21.508 34.8428 21.902 34.8428C22.7827 34.8428 23.5872 34.5123 24.1996 33.9697C24.8121 34.5123 25.6169 34.8428 26.4973 34.8428C26.8107 34.8428 27.1144 34.8004 27.4031 34.7223C28.1984 35.6387 29.3702 36.2201 30.6758 36.2201H33.1785C32.2117 37.0966 30.9153 38.649 30.9153 40.6732H33.2591C33.2591 38.8199 35.4319 37.4185 35.4503 37.4066L36.0011 37.0624V33.8763H30.6758C29.5787 33.8763 28.6863 32.9837 28.6863 31.8866C28.6863 31.4105 29.0733 31.0233 29.5494 31.0233H39.2363C39.4001 31.0233 39.5335 31.1566 39.5335 31.3205V39.4931C39.5335 42.4112 37.1595 44.7849 34.2418 44.7849H33.3903V47.1286H34.2418C34.6345 47.1286 35.0206 47.0987 35.3975 47.0413V50H37.7412V46.2781C40.1957 45.0067 41.8773 42.4426 41.8773 39.4931V31.3205C41.8773 29.8645 40.6926 28.6798 39.2363 28.6798ZM35.688 22.5034C36.309 22.5034 36.8138 23.0081 36.8138 23.6288V28.6795H34.5625V23.6288C34.5625 23.0081 35.0673 22.5034 35.688 22.5034ZM29.9669 22.4539C29.9669 21.8332 30.4722 21.3281 31.0927 21.3281C31.7134 21.3281 32.2184 21.8332 32.2184 22.4539V28.6795H29.9669V22.4539ZM21.902 32.4991C21.2816 32.4991 20.7765 31.994 20.7765 31.3733V25.1715C20.7765 24.5508 21.2816 24.0457 21.902 24.0457C22.5227 24.0457 23.0278 24.5508 23.0278 25.1715V31.3733C23.0278 31.994 22.5227 32.4991 21.902 32.4991ZM25.3715 31.3733V23.6288C25.3715 23.0081 25.8769 22.5034 26.4973 22.5034C27.118 22.5034 27.6231 23.0081 27.6231 23.6288V29.3243C26.8461 29.9103 26.3426 30.8408 26.3426 31.8866C26.3426 32.0926 26.3582 32.2952 26.3859 32.4936C25.8174 32.4371 25.3715 31.9565 25.3715 31.3733Z" fill="black"/>
</svg>
