<svg id="Capa_1" enable-background="new 0 0 497 497" height="512" viewBox="0 0 497 497" width="512" xmlns="http://www.w3.org/2000/svg"><path d="m248.369 423 140.506 72.042c1.507-1.372 2.459-3.343 2.459-5.542v-482c0-2.198-.952-4.17-2.459-5.542l-140.506 72.042-140.506-71.803c-1.357 1.357-2.197 3.232-2.197 5.303v482c0 2.071.839 3.946 2.197 5.303z" fill="#7b7c9b"/><path d="m286.833 104 102.041-102.042c-1.332-1.212-3.097-1.958-5.041-1.958h-270.666c-2.071 0-3.946.839-5.303 2.197l101.803 101.803z" fill="#9b9bb0"/><path d="m383.833 497c1.944 0 3.709-.746 5.041-1.958l-102.041-102.042h-77.166l-101.804 101.803c1.357 1.357 3.232 2.197 5.303 2.197z" fill="#616281"/><path d="m331.333 467-105-218.5 105-218.5h30v437z" fill="#78d0ff"/><path d="m135.667 30h195.667v437h-195.667z" fill="#bce8ff"/></svg>