<svg width="427" height="427" viewBox="0 0 427 427" fill="none" xmlns="http://www.w3.org/2000/svg">
<g clip-path="url(#clip0)">
<path d="M322.725 46.0968H211.005V378.281H322.725V46.0968Z" fill="#FBDD4F"/>
<path d="M229.101 419.633L81.864 390.185V46.6297L229.101 7.36658V419.633Z" fill="#434C54"/>
<path d="M229.101 398.246H327.26H345.137V380.369V46.6298V28.7542H327.26H229.101V64.5071H309.384V362.493H229.101V398.246Z" fill="white"/>
<path d="M194.804 236.116C198.873 236.116 202.17 232.818 202.17 228.749C202.17 224.681 198.873 221.383 194.804 221.383H169.617C165.547 221.383 162.251 224.681 162.251 228.749C162.251 232.818 165.548 236.116 169.617 236.116H194.804Z" fill="#FBDD4F"/>
<path d="M236.467 57.1404V36.1207H337.77V390.878H327.26C323.191 390.878 319.893 394.177 319.893 398.245C319.893 402.313 323.191 405.612 327.26 405.612H345.136C349.206 405.612 352.503 402.313 352.503 398.245V28.7541C352.503 24.6859 349.205 21.3875 345.136 21.3875H236.467V7.36654C236.467 5.07808 235.403 2.9189 233.588 1.52531C231.772 0.130888 229.413 -0.341981 227.202 0.249314L79.965 39.5125C76.74 40.3723 74.4966 43.2929 74.4966 46.6305V70.4249C74.4966 74.4931 77.7942 77.7915 81.8632 77.7915C85.9322 77.7915 89.2298 74.4931 89.2298 70.4249V52.2908L221.733 16.9557V410.647L89.2298 384.147V95.2543C89.2298 91.1861 85.9322 87.8877 81.8632 87.8877C77.7942 87.8877 74.4966 91.1861 74.4966 95.2543V390.186C74.4966 393.698 76.9752 396.721 80.4187 397.409L227.655 426.857C228.135 426.953 228.618 427.001 229.1 427.001C230.789 427.001 232.442 426.42 233.77 425.331C235.476 423.932 236.466 421.841 236.466 419.634V405.615H304.357C308.427 405.615 311.723 402.317 311.723 398.248C311.723 394.18 308.426 390.882 304.357 390.882H236.466V369.863V57.1404H236.467Z" fill="#434C54"/>
</g>
<defs>
<clipPath id="clip0">
<rect width="427" height="427" fill="white"/>
</clipPath>
</defs>
</svg>
