<?xml version="1.0" encoding="iso-8859-1"?>
<!-- Generator: Adobe Illustrator 19.0.0, SVG Export Plug-In . SVG Version: 6.00 Build 0)  -->
<svg version="1.1" id="Capa_1" xmlns="http://www.w3.org/2000/svg" xmlns:xlink="http://www.w3.org/1999/xlink" x="0px" y="0px"
	 viewBox="0 0 512 512" style="enable-background:new 0 0 512 512;" xml:space="preserve">
<g>
	<rect x="9.906" y="438.262" style="fill:#76FFD9;" width="493.476" height="56.832"/>
	<rect x="45.564" y="16.898" style="fill:#76FFD9;" width="422.155" height="421.365"/>
</g>
<g>
	<rect x="85.219" y="54.744" style="fill:#FFFFFF;" width="151.596" height="345.684"/>
	<rect x="276.475" y="54.744" style="fill:#FFFFFF;" width="151.596" height="345.684"/>
</g>
<g>
	<path style="fill:#FFC843;" d="M428.07,54.735v207.563c-2.063,1.075-4.076,2.199-6.04,3.372
		c-126.089-4.595-145.556-153.054-145.556-153.054V54.735L428.07,54.735L428.07,54.735z"/>
	<path style="fill:#FFC843;" d="M428.068,265.782v134.649h-87.02c0,0,12.34-94.073,80.98-134.761
		C424.017,265.745,426.03,265.782,428.068,265.782z"/>
	<path style="fill:#FFC843;" d="M236.812,54.735v57.882c0,0-19.467,148.459-145.556,153.054c-1.964-1.173-3.977-2.297-6.04-3.372
		V54.735H236.812z"/>
</g>
<g>
	<rect x="85.215" y="54.731" style="fill:#FFA816;" width="151.596" height="50.026"/>
	<rect x="276.475" y="54.731" style="fill:#FFA816;" width="151.596" height="50.026"/>
</g>
<path style="fill:#FFC843;" d="M85.219,265.782v134.649h87.02c0,0-12.34-94.073-80.98-134.761
	C89.272,265.745,87.258,265.782,85.219,265.782z"/>
<path style="fill:#434C54;" d="M502.736,429.002h-26.393V16.898c0-5.116-4.148-9.264-9.264-9.264h-61.754
	c-5.116,0-9.264,4.148-9.264,9.264s4.148,9.264,9.264,9.264h52.49v402.84H54.185V26.162h320.261c5.116,0,9.264-4.148,9.264-9.264
	s-4.148-9.264-9.264-9.264H44.921c-5.116,0-9.264,4.148-9.264,9.264v412.104H9.264c-5.116,0-9.264,4.148-9.264,9.264v56.835
	c0,5.116,4.148,9.264,9.264,9.264h45.9c5.116,0,9.264-4.148,9.264-9.264s-4.148-9.264-9.264-9.264H18.528V447.53h474.944v38.307
	H86.044c-5.116,0-9.264,4.148-9.264,9.264s4.148,9.264,9.264,9.264h416.692c5.116,0,9.264-4.148,9.264-9.264v-56.835
	C512,433.15,507.852,429.002,502.736,429.002z"/>
<g>
</g>
<g>
</g>
<g>
</g>
<g>
</g>
<g>
</g>
<g>
</g>
<g>
</g>
<g>
</g>
<g>
</g>
<g>
</g>
<g>
</g>
<g>
</g>
<g>
</g>
<g>
</g>
<g>
</g>
</svg>
